<?xml version="1.0" encoding="utf-8"?>
<!-- Generator: Adobe Illustrator 23.0.6, SVG Export Plug-In . SVG Version: 6.00 Build 0)  -->
<svg version="1.1" id="Capa_1" xmlns="http://www.w3.org/2000/svg" xmlns:xlink="http://www.w3.org/1999/xlink" x="0px" y="0px"
	 viewBox="0 0 1000 1000" style="enable-background:new 0 0 1000 1000;" xml:space="preserve">
<style type="text/css">
	.st0{fill:#010101;}
	.st1{fill:#EF635E;}
	.st2{fill:#F0635E;}
	.st3{fill:#FEFEFE;}
	.st4{fill:#030101;}
	.st5{fill:#050101;}
	.st6{fill:#0A0202;}
	.st7{fill:#0D0405;}
	.st8{fill:#DC6560;}
	.st9{fill:#130202;}
	.st10{fill:#E17070;}
	.st11{fill:#DF716D;}
	.st12{fill:#E0756F;}
	.st13{fill:#E37275;}
	.st14{fill:#E07774;}
	.st15{fill:#060202;}
	.st16{fill:#0F0202;}
	.st17{fill:#FBF7F6;}
	.st18{fill:#CC989A;}
	.st19{fill:#FCDFE0;}
	.st20{fill:#040101;}
	.st21{fill:#090202;}
	.st22{fill:#E47472;}
	.st23{fill:#E1706E;}
	.st24{fill:#130304;}
	.st25{fill:#100303;}
	.st26{fill:#DE7474;}
	.st27{fill:#E67071;}
	.st28{fill:#DA7474;}
	.st29{fill:#DC7474;}
	.st30{fill:#E37473;}
	.st31{fill:#D57676;}
	.st32{fill:#060101;}
	.st33{fill:#EB6665;}
	.st34{fill:#E96968;}
	.st35{fill:#E37270;}
	.st36{fill:#D8716E;}
	.st37{fill:#DE7472;}
	.st38{fill:#E17370;}
	.st39{fill:#DA605F;}
	.st40{fill:#E5726E;}
	.st41{fill:#D26661;}
	.st42{fill:#E07274;}
	.st43{fill:#DA7774;}
	.st44{fill:#DD7673;}
	.st45{fill:#DF7573;}
	.st46{fill:#D97676;}
	.st47{fill:#EB716D;}
	.st48{fill:#D65E61;}
	.st49{fill:#180606;}
	.st50{fill:#D06560;}
	.st51{fill:#D06462;}
	.st52{fill:#CD6864;}
	.st53{fill:#DC7670;}
	.st54{fill:#DF7774;}
	.st55{fill:#D97770;}
	.st56{fill:#DC7471;}
	.st57{fill:#E07973;}
	.st58{fill:#D16263;}
	.st59{fill:#E57476;}
	.st60{fill:#BA6868;}
	.st61{fill:#E57273;}
	.st62{fill:#DC7674;}
	.st63{fill:#DF7575;}
	.st64{fill:#E07575;}
	.st65{fill:#D26463;}
	.st66{fill:#D16661;}
	.st67{fill:#D06263;}
	.st68{fill:#D8635F;}
	.st69{fill:#DF6562;}
	.st70{fill:#E37773;}
	.st71{fill:#DC7773;}
	.st72{fill:#D97573;}
	.st73{fill:#E27375;}
</style>
<g>
	<path class="st0" d="M340.4,905.6c-69.9-38.4-125.9-89.8-154.9-166.3c-2.8-7.5-5.5-11.4-15.1-11.9c-22.1-1-36-15.2-45.3-34.2
		c-9.4-19.2-12.5-40.1-15.5-60.9c-15.3-108-7.5-215.1,12.1-321.8c3.2-17.4,6.3-34.9,10-52.2c5-23.3,20.3-36.1,43.4-39.9
		c24.2-4,48.6-3.9,72.8-0.4c22,3.2,32.4,13.4,37.4,34.9c0.4,1.8,0.9,3.6,1.3,5.4c4.9,25.3,17.3,33.1,42.6,26.7
		c6.7-1.7,10.6-6.3,13.4-12.2c4.6-9.9,6.2-20.5,6.6-31.2c1.3-37.4-3.8-74.5-5.6-111.7c-1.1-24-1.7-48-1.5-72
		c0.1-16.4,8.3-27,23-33.1c10-4.1,20.6-5.9,31.4-5.6c15.8,0.4,27.2,8.3,34.3,22.3c6.1,12,8,25.2,11.8,37.9c1,3.3,1.1,8.1,5.8,8.4
		c4.9,0.3,8.6-2.8,10.1-7.3c1.7-4.8,2.8-9.9,3.5-15c0.8-5.8,0.6-11.8,1.1-17.7c2.3-27.1,8-34.3,29.9-37.9
		c26.3-4.4,42.8,3.6,52.2,26.1c3.4,8.1,5.1,16.9,8.3,25.2c3.1,8,2.7,21.1,15.5,19.1c11.2-1.8,7-13.5,8.2-21.2
		c1.1-6.9,0.8-14,1.9-20.9c2.7-16.5,12.1-27.7,28.6-31.6c17.3-4.1,33.8-3.6,46.9,11c9.4,10.4,14.8,23,18.6,36.1
		c6.9,24.2,15.4,47.6,29.4,68.8c4.6,7,7.6,15.2,10.2,23.2c11.1,34.5,2.2,57.2-29.1,75.5c-3.9,6.2-10.6,7.5-16.8,9.8
		c-23.1,8.7-47.6,13.1-69.9,24c-3.9,1.8-7.8,3.6-11.4,5.9c-20.2,15.5-33.6,34.1-28.1,61.3c1,4.1,1,8.3,2.6,12.3
		c2.8,7.6,5,15.5,10.2,22c1.6,2.1,2.7,4.4,3.3,7c0.3,1,0.4,2,0.6,3c1.2,8.2,8.4,12.6,12.4,19c2.1,3.3,5.8,5.7,5.9,10.2
		c-0.6,3-2.3,4.8-5.4,5.1c-7.6-2.1-11.5-8.4-16.2-13.9c-2.6-3.1-5.7-5.6-9-7.9c-30-34.3-41.2-104.5,14.1-135.7
		c6.2-3.8,12.7-7.2,19.4-10c11.4-4.5,22.9-8.8,34.9-11.8c14.7-4.4,29.6-8.1,43.4-14.9c24.4-13.2,31.1-30,22.1-56.3
		c-4.1-11.9-9.7-23.2-16.5-33.8c-7.3-11.3-12.3-23.5-16-36.3c-3.9-13.5-7.5-27.1-14.3-39.5C642.6,30.1,635.3,21,621,22.2
		c-15.7,1.4-22.2,7.3-25.2,22.9c-1.5,8-1.8,16.1-2.1,24.2c-0.6,15.6-8.8,26.1-21.5,28.5c-13.1,2.4-24-4-30.8-18.2
		c-3.2-6.7-5.2-13.8-7.1-21c-1.7-6.4-3.8-12.8-7.1-18.6c-8-14-26-18.3-39.5-9.8c-5.4,3.4-6.7,8.8-6.7,14.4c0,10.4-1.3,20.7-3.2,30.8
		c-2.4,12.8-7.4,24.1-21.5,28.4c-11.6,3.6-20.2,0.4-26.4-10.1c-2.8-4.8-4.6-10.1-6-15.4c-1.5-5.7-3.1-11.4-4.5-17.1
		c-7.1-29.2-30.7-27.2-49.8-18.7c-7.9,3.5-10.5,10.9-10.8,19.2c-1,27.7,2,55.3,3.2,82.9c1.3,29.1,4.8,58.1,5.3,87.2
		c0.3,13.7-2,27.3-6.3,40.3c-8.1,24.4-22.8,32.9-52.8,31.1c-20.6-1.3-33.4-13.6-38.2-36.5c-0.8-3.6-1.5-7.2-2.2-10.9
		c-2.4-11.5-9.7-18.6-20.9-20.2c-23.4-3.2-47-4-70.5,0.5c-16.7,3.2-25.5,13.5-28.7,29.6c-8.6,43.5-16.6,87.1-21.8,131.1
		c-5.7,48.4-8.1,97.1-6.8,145.9c1,38.8,5.1,77.3,12.7,115.4c2.8,14.2,7,28.1,17.1,39.1c6,6.6,12.6,12.8,22.8,10.6
		c5-10.1-2.2-18.7-3.3-28c-0.7-5.9-4.1-12.5,5.3-14.6c10.6,6.9,7.9,19.3,10.9,29c5.1,16.5,5.4,19.2,23,9.5
		c14-7.7,25.9-18.2,36.3-30.5c2.8-3.4,5.5-7,9.9-8.6c3.3-0.5,5.2,1,5.9,4.2c-2.8,13.9-14.4,21.1-24,29.1
		c-9.4,7.9-18.9,16.1-31.3,20.4c-11.3,3.9-11.2,9.3-2,21.4c12,20.8,23.3,42,35.9,62.5c1.8,6.7,6.3,11.4,10.9,16.3
		c27.2,29.4,59.6,52.2,93.3,73.3c2.7,1.7,6.3,2.5,7.6,6C350.9,905.9,345.5,905.4,340.4,905.6z"/>
	<path class="st0" d="M340.4,905.6c1.3-4.3,8.7-0.6,8.7-6.6c9.8-1.6,15,7.8,23.4,9.9c4.1,1,8.1,2.9,12.5,3.1
		c23.4,8.7,46,19.6,69.5,28c9.7,3.5,19.5,6.7,29.2,10.1c4.1,1.5,8.1,3.1,12.4,3.9c3.2,0.7,6.3,1.8,9.6,2.3
		c8.8,2.3,17.7,4.4,26.6,6.4c69.9,16.1,140.1,23.1,210.4,4.1c53-14.3,95.2-43.3,118.8-95c12.4-27.3,18.3-56.2,18.8-86
		c1.6-83.9-21-161.2-64.1-232.9c-17.1-28.5-34.6-56.7-49.6-86.5c-17.5-34.8-25.3-71.5-25.8-110c-0.3-20-1.6-39.9-6.7-59.3
		c-3.4-12.7-8.4-24.7-22.1-29.9c-10.4-3.2-20.4-0.7-30.3,2.1c-14.5,4.1-29,8.3-44.1,9.7c-3.7-0.1-7.5,0-11.2-0.2
		c-4.5-0.6-9-1.3-9.4-7.2c7.9-8.3,19.2-9.1,29.1-11.1c18.5-3.6,36.2-11.4,55.5-11.3c1.7-0.4,3.3-1,5.1-0.7
		c19.3,1.7,31.8,12.5,39.4,29.6c8.5,19.3,10.8,39.9,11.3,60.6c1,42.8,5.9,84.6,26.3,123.3c11.5,21.9,23.7,43.4,37,64.2
		c37,57.9,62.5,120.3,72.7,188.5c7,46.8,7.8,93.6-6.4,139.3c-22.4,72.5-74.1,113.2-145.6,131.2c-59.1,14.9-118.7,12.1-178.1,1.7
		c-76.5-13.4-148.7-39.3-216.7-77.1C344.5,908.6,342.5,907,340.4,905.6z"/>
	<path class="st1" d="M706.7,248.5c-1,0.3-2,0.7-2.9,1c-19.1,1.3-37,8.1-55.6,11.6c-18.9,3.6-36.6,10.5-51.7,22.4
		c-11.9,9.3-15.8,22.6-12.9,37.5c1.6,8.3,4.3,16.3,8.4,23.8c3.1,7.8,8,14.5,13.3,21c3.4,5.8,8.4,10.1,13,14.8c1.1,1,2.2,2.1,3.2,3.2
		c4.8,4.4,8.6,9.7,12.6,14.7c3.1,3.5,6.1,7.2,11.5,7.3c15.7,12.2,33.1,22.2,46.9,36.8c2.7,4.4,6.4,7.6,11.3,9.2
		c19.4,10.8,30.8,29.2,42.8,46.7c21.9,31.9,36.2,67.2,42.9,105.4c0.5,2.9,0.9,5.8,0.3,8.8c-2.8,11.8,1.7,23.3,1.7,35.1
		c0,13.6-2.5,27-1.9,40.6c0.3,2.3,0.3,4.5-1.2,6.3c-5.9,4.7-3.6,11-3.5,17c-11.8,48.3-39.5,85.5-80.4,113.1
		c-4.1,2.8-8.6,6.1-14.2,4.1c-1.5-9.5-6.7-9.8-13.9-5.7c-8,4.6-15.9,9.1-25.9,6.2c-3.1-0.9-5.4,1.7-7.1,4.3c-3.8,5.8-8.9,5-13.2,1.4
		c-5.2-4.3-11.1-5.8-17.4-6.2c-14.7-0.7-28.1-5.1-40.3-13.4c-2.4-1.6-5.1-3-8-3.8c-2-0.5-3.6,0.4-4.6,2.2c-1.2,2-0.3,3.3,1.4,4.6
		c4.1,3,7.7,7.2,13,8.1c19.8,3.4,39,10.4,59.4,11.1c5.3,0.2,9.1-1.6,13.3-3.9c6.5-3.5,13-5.6,19.2,0.6c0.6,2.3-0.6,4.1-2.6,3.8
		c-4.2-0.7-2.1,2-2.2,3.5c-17.2,7.7-35.3,5.8-53.1,4c-18.8-1.9-36.6-8.1-53.6-16.2c-1.1-0.3-2.2-0.6-3.3-1c-1.6-0.6-2.9-1.5-4.2-2.7
		c-6.4-6.6-14.6-10.9-21.8-16.5c-5.9-7.7-16.9-10.6-19.6-21.2c3.5-5.3,7.3-3.2,11.3-0.7c6.1,3.7,10,9.7,15.2,14.3
		c9.3,8.3,14.7,6.7,18.5-5.5c0.9-2.8,0.1-5.9,1.6-8.6c1.1-1.4,2.4-2.3,4.3-2.2c2.2,0.8,3.8,2.3,5,4.1c14.6,21.3,36.7,27,60.6,28.9
		c24.1,1.9,47-2.6,68.8-12.8c3.3-0.5,6.5-1.8,9.9-0.8c3,1.5,3.7,4.4,4.3,7.3c1.4-3.7,5.7-4.5,8.5-8.9c-3.8,1.9-6.9,3.2-10,1
		c-1.3-2.1-0.5-4.1,0.3-6.1c1.5-3,3.7-5.6,6.1-7.8c17.7-15.7,30.5-34.8,39.8-56.4c0.7-1.7,1.8-3.2,3.2-4.4
		c7.6-13.4,13.3-27.2,10.8-43.2c7.6-42.8,2-84.1-14.7-124c-19.7-45.8-50.9-82.5-89.3-113.7c-12.3-10-26.1-18-37.1-29.6
		c-3.7-5.9-8.5-11-14.3-14.8c-15.5-10.2-27-24.3-37.3-39.5c-1-1.9-2-3.9-3.1-5.8c-2.9-7.5-6.3-14.8-9.5-22.2
		c-0.5-4.4-2.7-8.4-2.4-13c0.1-1.4-0.5-2.3-0.3-0.9c0,0-0.7,0.2-1,0.3c-6.4-25.1,4.4-48.9,29.2-64.2c4.4-0.5,8.1-2.3,10.7-5.9
		c16.9-9.5,36-12.8,54.2-19c11.5-3.9,22.8-8.4,34.2-12.6c5,7.7,10.3,15.1,14.9,23.1C700.4,248.1,704.5,246,706.7,248.5z"/>
	<path class="st2" d="M483.8,952.4c-30.6-8.4-59.8-20.9-88.7-33.8c-3.3-1.5-6.7-2.8-10.1-4.2c-18.8-5.9-34.7-17.2-51.2-27.3
		c-35.2-21.5-67.9-46.1-94-78.6c-1.4-1.7-2.9-3.3-3.4-5.6c-13.2-19.6-25.1-40.1-35.1-61.5c-2.3-1.1-2.4-3.5-3.2-5.5
		c-4.7-11.3-3.9-13.2,7.4-18.2c22.5-9.9,39.5-26.2,54.3-45.4c10.1-13.1,22.2-24.6,32.2-37.9c17.8-17.9,32.7-38.6,51.6-55.5
		c5.4-3.4,10.3-7.2,12.6-13.4c2.3-4.6,5.9-8,9.8-11.1c5.4-3.4,10.1-7.3,12.4-13.5c5.3-10.2,13.2-18,22.1-25c3.6-2.1,5.7-5.3,6.9-9.3
		c6-12.6,14.8-23.9,18.4-37.7c5.9-22.8,2-43.1-15.3-60c-1.8-1.8-3.5-3.8-5-5.9c-2.9-4.8-6.6-8.4-12.7-8.3c-4.3-1.3-8.4-2.8-11.3-6.5
		c-9.3-5.8-19.1-8.6-30.1-6.1c-32.4-3.7-63.6,1.2-93.9,12.4c-6.2,0.7-12.8,0.8-16.3,7.6c-12,9.1-23.4,19-34.6,29.1
		c-3.2,2.1-5.6,4.9-7.7,8.1c-19.7,27.9-29.6,59.4-35.8,92.6c-4.1,21.8-5.9,43.6-6,65.7c0,7,0.6,13.9,1.5,20.9
		c0.9,6.5,3.2,14-3.4,19.5c-2.8-0.4-4.3-2.5-5.7-4.6c-7.2-19.7-8.3-40.5-9.3-61c-1.7-36.9-0.5-73.7,6.5-110.2
		c4.5-23.7,11.1-46.6,22.5-68c23.1-43.4,66.8-64.5,115.1-55.1c18.1,3.5,35.9,8.4,54.1,11.5c9.9,1.7,19.7,2.6,29.7,1.2
		c5.2,0,11.4,3.8,14.8-3.6c29.4-17.9,38-44.2,31.6-76.9c-3.5-17.8-9.3-35-11.7-52.9c-2.1-16-4.2-32.5,7.6-46.4
		c6-0.2,6.3-6.4,9.6-9.3c16.1-13.4,35.7-17,55.5-19.8c57.7-8.1,111.4,3.5,160.8,34.4c7.8,4.9,15.6,9.9,21.5,17.2
		c2.6,3.6,4.4,8,9.4,9.4c2.8,1.2,5.5,2.5,5.2,6.3c-13.3,6.6-27.5,10.6-41.9,14c-12.4,0.1-22.9,6.3-34.2,10.1
		c-6.5,3.2-13.9,4.8-18.9,10.7c-55.8,36.7-42.2,95.9-14.1,133.4c1,0.3,1.6,0.9,1.8,1.9c0.3,3.3,2.6,4.8,5.4,5.9
		c7.7,10.4,17.9,18.3,27.9,26.3c13.7,13.2,29.4,24,44.5,35.6c14.5,11.2,28.7,22.6,42.3,34.8c4.3,5,8.3,10.2,11.7,15.9
		c1.3,3.2,2.8,6.3,6.6,7.2c7.5,5.7,9.6,15.5,16.9,21.4c0.7,0.8,1.3,1.7,1.9,2.6c14.5,21.5,24.6,44.9,30.7,70.1
		c0.9,3.9,2.2,7.8,1.4,11.9c-2.5,8.2,1.2,16,1.4,24.1c0.5,19.6-1.6,39-5.3,58.2c-0.6,2.9-1.4,5.7-0.8,8.7
		c-3,21.5-14.2,39.5-24.7,57.7c-19,26.7-43.7,44.7-76.8,49.4c-20.2,2.9-39.8,0.4-58.4-8.1c-8.2-3.7-15-9.3-19-17.8
		c-4.2-11.3-3-22.9-1.5-34.5c2.5-14.6,12.5-24.8,21.8-35.1c10.6-11.7,22.3-22.5,33.4-33.7c3.9-3.4,7.3-7.3,9.5-12.1
		c22.4-22.6,26.8-65.9,1-90.8c-2-3.4-4.5-6.2-9-5.9c-13.3-5.4-27.1-9.3-41.6-8.1c-18.2,1.5-32,11.8-44.5,24.1
		c-2.1,2.1-3.7,4.5-6.3,6c-3.1,1.5-6.2,3-8.4,5.8c-0.8,0.6-1.8,1-2.8,1.1c-5.6-1-7.7-6.7-12.1-9.3c-4.6-4.8-8-10.6-12.1-15.8
		c-21.4-27.5-66.3-28.3-88.3-1.1c-24.8,30.6-22.5,64.1-8.7,98.2c5,12.3,11.3,24,18.6,35.2c0.8,4,2.7,7.4,6.4,9.5
		c3.5,2.4,6.2,5.4,7.2,9.6c1.3,5.9,5.9,9.1,10,12.8c5.8,4,10.9,8.8,15.7,14c21.9,25.4,42.9,51.8,71.7,70.1c0.9,0.5,1.7,1.1,2.5,1.8
		c0.4,0.3,0.8,0.7,1.2,1c3.3,3.3,7.5,5,11.6,6.9c14.6,7.9,30,13.7,46.1,17.7c2.8,0.7,5.8,1.1,7.9,3.5c17.9,6.4,36.2,3,54.3,2.2
		c0.2,0,0.5-0.4,0.4-0.5c0-0.4-0.2-0.7-0.4-1c1.5-3.2,4.7-3.1,7.5-3.8c35.3-8.2,64.1-27,87.6-54.1c3.6-4.2,7.3-8.3,12-11.3
		c10.5-11.5,18.1-25,24.8-38.8c8.6-17.9,14.2-37.1,17.5-56.4c2.7-15.7,2.2-32.2,2.3-48.3c0-1.4-0.7-2.9-0.7-4.3
		c-0.1-3.6-0.9-8.7,3.3-9.4c4.2-0.7,5.2,4.1,6.1,7.7c8.5,34.7,11.9,69.9,10.7,105.5c-0.3,9.9-1.6,19.8-1.3,29.7
		c0,5.2-0.4,10.5,0.9,15.6c-4.2,31.4-15.5,59.6-36.4,83.7c-4.3,2.8-8.2,5.9-9.9,11c-4.1,6.8-9.5,12.3-16.3,16.3
		c-5.1,1.8-8.3,5.8-11.1,10.2c-20,18.3-44.5,28.3-69.6,36.8c-19.5,6.6-39.8,10.6-60.2,13.8c-17.6,0.5-35,2.9-52.6,2.7
		c-19.5-0.2-38.8-1-58.1-3.7c-4.1-1.9-8.7-1.8-12.9-3.1C493.5,953.7,488.5,953.8,483.8,952.4z"/>
	<path class="st3" d="M371.5,354.3c-24,3.6-46.8-2.8-69.7-8.4c-19.5-4.8-39-8.4-59-4.3c-41.9,8.4-66.4,36-80.3,74.3
		c-19.5,53.7-22.2,109.4-18.4,165.8c1.2,17.2,3,34.5,7.7,51.2c5.1,10.7,7.4,22.3,10.3,33.6c0.4,1,0.7,2,0.9,3.1c1,4,2.2,8,3.8,11.8
		c1.7,3.7,3,7.6,4.5,11.4c2.7,5.7,3.6,11.9,4.6,18c-10,5.8-17.5-0.5-24.3-6c-11.1-8.8-16.4-21.6-20-35
		c-7.4-27.9-10.9-56.5-13.1-85.2c-7.5-97.9,1.9-194.7,20.9-290.7c1.9-9.4,3.3-18.9,5.4-28.3c4.9-21.8,13.6-30.2,35.6-33.4
		c21.3-3.1,42.8-2.7,64.1-0.2c16.8,1.9,23.7,9,27,25.9c0.3,1.4,0.6,2.9,0.9,4.3c6.7,33.3,29.3,46.5,62,36.4
		c12.9-4,19.7-13.8,23.6-25.8c6.6-20,6.6-40.6,5.3-61.4c-3-47.2-7.3-94.3-7.5-141.6c-0.1-27.5,18.5-41.7,45.9-35.4
		c9.7,2.2,14.9,9.5,17.9,18.1c3.6,10.4,6,21.3,9.2,31.9c2.6,8.7,6.1,17,16.7,18.4c10.2,1.3,20.7-5.2,25.8-15.6
		c5.6-11.7,5.2-24.4,6-36.9c1.4-21.3,2.6-23.1,19.3-26.2c17.6-3.2,28.3,1.8,34.8,17.7c4.3,10.5,6.9,21.8,10.6,32.6
		c2.9,8.6,7.1,16.4,16.3,19.7c16.4,5.9,30-3.1,32.1-21.4c1.1-9.9,1.2-19.9,2.2-29.8c1.2-11.2,6.6-19.4,18.3-22.2
		c12.5-3,24.2-3.2,33.4,7.8c8.7,10.5,13.1,23.1,16.7,35.9c6,21.4,13.3,42.1,26,60.7c5.8,8.5,9.7,18.2,12.5,28.2
		c7.8,27.6-0.6,45.2-27.3,56.9c-2.4-1.1-3.5-4.5-6.8-4c-2.1-3.4-5.7-5.4-8.1-8.5c-28.7-26.5-63.2-41.5-100.9-49.3
		c-38.5-7.9-76.9-7-114.5,5.4c-8,2.6-15.9,5.8-22,12.1c-2.1,2.2-3.9,4.7-6.5,6.4c-12,13.3-10.7,29.3-8,45
		c3.4,19.6,9.2,38.7,12.3,58.3c5.8,36.2-4.6,57.4-35.4,75.9C379.4,354.5,375.6,355,371.5,354.3z"/>
	<path class="st4" d="M176.1,710.8c-3.7-5.2-4.3-11.7-6.6-17.4c-1.4-6.3-3.8-12.4-5.2-18.7c-0.6-1-0.9-2-1.2-3.1
		c-0.1-4-1.7-7.7-2.4-11.5c-2.5-9.9-2.4-20.1-3.2-30.1c-2.1-27.6-2.6-55.3,1.3-82.6c5.6-38.2,15.8-75.2,38.1-107.7
		c2.2-4.1,5.5-7.4,9-10.5c10.3-11.1,22-20.4,34.3-29.2c3.7-3.9,8.2-6.1,13.5-7c32.1-13.6,65.4-18.4,100-13.6
		c10.4-0.9,19.5,3,28.5,7.5c3.8,1.9,7.7,3.8,11.5,5.7c5.2,1.2,9.4,4.2,12.8,8.2c37.1,33,26.6,68.5,8.8,97.2
		c-2.1,3.4-4.4,6.8-6.5,10.2c-1.8,3.7-4.2,6.9-7.6,9.3c-7.6,7.5-15,15.3-21.2,24c-2.6,6-8,9.4-12.4,13.8c-3.2,3.7-7.7,6.1-9.8,10.8
		c-3.1,5.7-8.1,9.7-13,13.6c-16.9,18.6-33.7,37.1-50.6,55.7c-4.5,1.1-5.1,6.2-8.4,8.4c-3.1,2-4.6,7.5-9.9,5
		c-4.8-6.5-0.3-10.9,3.6-15.4c4.2-5,10.6-8.3,11.5-15.7c5.3-14,17.7-22.2,26.8-33.1c17.4-20.8,36.3-40.5,54-61.1
		c5.7-5.8,12.1-11,16.3-18.1c11.1-13.3,21.4-26.9,24.7-44.5c2.8-7.5,1.2-14.8-0.6-22.2c-11.9-28.3-36.4-37.9-64-42.1
		c-41.4-6.4-78.8,3.6-112.5,28.4c-2.1,1.5-4.4,2.7-6.7,3.7c-14.8,6.7-21.2,20.5-28.1,33.8c-7.7,15-12.9,31.1-20.5,46.2
		c-2.9,2.3-3.2,5.6-3.7,8.9c-0.6,0.8-1.3,1.5-2.1,2.2c-5.4,6.5-2.2,14.7-3.9,22c-5.2,22.4-9.5,45.4-7.3,68.9
		c0.6,5.9,4.9,8.9,7.4,13.2c1.2,2.7,1.2,5.5,0.7,8.3c-3.2,10.2-7.6,20.5,3.1,29.3c0.7,1.7,0.5,3.3-0.7,4.7c-6.3,3.3-3.7,8-2.7,13.1
		C173.3,689.7,179.3,699.6,176.1,710.8z"/>
	<path class="st5" d="M683.3,484.6c-22.5-21-47.6-38.7-71.5-57.9c-5-4-12.2-5.4-14.6-12.3c-2.7-5.4-10.5-7-10.8-14.3
		c2.1-0.8,3.6-2.3,4.4-4.4c1.2-1.3,2.6-1.5,4.2-1.1c2.4,1.1,4.1,2.9,5.8,4.9c2.8,4.7,7.7,7.2,11.8,10.6
		c27.4,24.2,58.8,43.6,83.6,70.9c12.5,13.8,23.9,28.6,34.7,43.7c2.3,3.2,4.2,7,1.9,11.3c-1.4,1-2.9,1.3-4.5,1.1
		c-4.6-1-5.7-5.9-9.2-8.1l0,0C709.4,512.3,698,497.1,683.3,484.6z"/>
	<path class="st6" d="M174,666.2c0-1.5,0-3,0-4.4c-4.8-9.1-8.4-18.4-4.4-28.8c0-3,0-5.9,0-8.9c-2.1-3.5-3.4-7.3-3.4-11.4
		c0.2-19.7-1.4-39.4,1.8-58.9c1.7-4.3,1.3-9.1,3.4-13.3c2.2-3.8,0.7-7.7,0.5-11.6c-0.2-4.3-0.6-8.8,4.3-11.2l0,0
		c1.4-2.8-0.9-6.5,2.2-8.9c7.9-20.7,16-41.3,27.2-60.4c5.3-9,10.7-18.5,22.2-21.3c0.3,3.7-2,6.3-4.2,8.7
		c-24.6,28.2-35.8,62.4-42.9,98.2c-10.8,54.2-6,107.8,8.3,160.8c3.2,11.9,5.1,12.4,16,6.3c5.8-3.2,11.1-7.2,16.3-11.3
		c5.8-3.6,10.7-8.2,14.6-13.8c8.6-10.4,18.6-19.7,27-30.4c3.2-3.1,6.5-6.1,8.8-9.9c6.5-7,11.4-15.8,21.4-18.8
		c1.7,8.2-5.3,11.4-9.5,16c-4.3,4.6-9.3,8.5-7.9,15.8c-0.3,0.4-0.7,0.8-1,1.2c-4.3,1.9-8.2,4.3-10.5,8.6c-2.3,4.3-5.9,6.8-10.6,8
		c-12.8,17.2-28.8,30.8-46.7,42.3c-4.6,3-11.1,5.3-14.9,5c-6.7-0.7-7.7-9.1-9.3-15.3C180,687.4,179.2,676.2,174,666.2z"/>
	<path class="st7" d="M236.4,802.9c25,29.7,54,55,86.8,75.7c20.1,12.7,41.2,23.9,61.9,35.8c-10,1.1-17.5-4.9-25.6-9.2
		c-3.5-1.9-6.8-4.1-10.2-6.1c-37.9-22.5-73.6-47.8-103.6-80.4C241.3,814,236.7,809.7,236.4,802.9z"/>
	<path class="st6" d="M276,648.4c8.6-0.9,9.3-12.7,18.3-13.1c-24.1,27.7-45.7,57.8-76.6,79c-3.8,2.6-7.7,4.6-11.7,5.8
		c-9.6,2.9-11.4,7.7-6.2,16c0.9,1.5,1,3.5,1.5,5.3c-12-10.5-11.1-21.8,3.5-26.6c18.2-5.9,30.2-19.3,43.4-31.4
		c3.9-3.6,8.6-7,10.1-12.8C260.4,660.2,268.7,654.7,276,648.4L276,648.4z"/>
	<path class="st8" d="M599.7,400.1c-1.6-1.5-3.1-3-4.7-4.4c-10.1-8.1-17.8-18.1-23.9-29.5c0-0.5,0.1-1.1,0.3-1.6
		c5.2,0.1,6.1,4.9,8.4,7.9c9.4,11.9,19.7,22.6,32.5,31c5,3.3,10.4,7.2,11.8,13.9c-5.5,1.7-6.7-5.3-11.2-5.6
		C609.1,407.3,603.4,404.9,599.7,400.1z"/>
	<path class="st9" d="M586.4,400.1c3.2,5,9.6,7.7,10.8,14.3c-11.5-7-19.3-17.9-28.6-27.2c-2.3-1.9-5-3.5-5.1-6.9
		c0-0.7-0.1-1.4-0.2-2C573.7,382.7,577.6,394,586.4,400.1z"/>
	<path class="st4" d="M276,648.4c-3.4,9.4-13.2,13.6-17.7,22.2c-0.1-2.9-1.5-4.4-4.4-4.4c4.2-3,7.5-6.9,9.8-11.3
		C266.3,649.4,270.4,647.8,276,648.4z"/>
	<path class="st10" d="M595.2,233.7c11.2-5.2,22-12.1,35.3-9.7c-11.7,3.9-23.5,7.8-35.2,11.7c-0.8-0.4-1-0.9-0.8-1.3
		C594.7,234,595,233.7,595.2,233.7z"/>
	<path class="st9" d="M571.1,366.2c8,9.8,15.9,19.7,23.9,29.5c-1.4,0-2.8,0-4.2,0C584.8,385.5,573.1,379.1,571.1,366.2z"/>
	<path class="st11" d="M559.7,335.7c2.8,7.7,8.7,14.3,8.6,23.1c-5.4-6.8-8.4-14.7-10.4-23C558.5,334.7,559.1,334.7,559.7,335.7z"/>
	<path class="st12" d="M595.2,233.7c0,0.7,0,1.3,0,2c-5.9,3-11.9,6.1-17.8,9.1C580.8,237,588.7,236.5,595.2,233.7z"/>
	<path class="st13" d="M559.7,335.7c-0.6,0-1.2,0-1.8,0c-2.9-3.8-2.8-8.3-2.8-12.8c0.5-1,1.4-3.6,1.8-2.2
		C558.6,325.5,558.9,330.7,559.7,335.7z"/>
	<path class="st14" d="M595,252.8c-2,4.9-4.9,8-10.7,5.9C587.4,255.9,591.1,254.1,595,252.8z"/>
	<path class="st3" d="M762.3,897c5.9-4.1,10.9-9.2,15-15.1c2-4.8,6-8,9.6-11.5c19.6-24.2,30.9-52,36.1-82.4
		c-0.9-8.1,1.3-16.2,0.9-24.3c3.8-31.9,0.6-63.3-3.7-95c-3.3-23.6-10.9-45.3-20.1-66.8c-4.9-10.4-6.6-21.8-10-32.7
		c-9.7-31.3-24.5-60-43.8-86.4c-3.7-5-8.2-9.6-9.7-15.9c-7.9-34.7-9-70-9.2-105.3c0-4.9,0.5-9.9-1.2-14.7c-0.8-14.3-3.1-28.4-6-42.3
		c-0.5-1.6-0.8-3.2-1.1-4.9c-0.4-2.1-0.8-4.1-1.5-6.1c-1.1-3.5-2.2-6.9-3.5-10.3c-1-6.4-8.6-11.9-2.5-19.2
		c12.9,3.4,19,13.3,23.2,24.7c5.9,15.8,8.7,32.5,8,49c-3.2,72.6,25.2,134.5,63.6,193.2c38.5,58.8,64.3,122.7,73.7,192.6
		c6.3,46.6,6,93-10.8,137.7c-23.4,62.2-71.6,95.5-134,110.6c-50.3,12.2-101.1,10.8-151.9,3.6C565.8,973,548,971,531,965.1
		c4.2-6.5,10.7-4.6,16.5-4.3c25.7,1.1,51.3,0.2,76.6-4.3c25.5-5.1,51.2-9.8,75.3-20.2c18.2-7.8,36.2-16.3,51.3-29.6
		C754.2,902.9,757.4,898.9,762.3,897z"/>
	<path class="st2" d="M728.5,346.3c2.3,4.5,1.6,9.3,1.3,14.1c-1.3,30.1,0.5,60,5.1,89.7c0.6,3.6,3.2,8.6-4.2,8.2
		c-8.3-1.5-12.6-8.5-18.5-13.3c-10.2-8.3-21.6-15.3-30-25.7c-8.5-12-21.3-18.8-32.4-27.8c-2.8-2-5.6-4-9-5.1
		c-4.3-1.6-8.1-4.3-12-6.8c-12.1-12.9-23.5-26.3-31.2-42.5c-1-2.8-2-5.5-2.8-8.3c-6.3-20.8-2.7-31.5,15.3-44.7
		c0.9-0.6,1.9-1.1,2.9-1.6c7.9-4,16.6-4.7,25.1-6.4c14.4-2.2,28.5-6,42.6-9.9c10.2-2.8,20.4-5.5,31-2.2c-1.9,7.1,4.5,12.1,4.8,18.7
		c-0.6,4,0.8,7.4,3.1,10.6c1.5,1.4,1.8,3,1.5,4.9c-1.6,4.6,1.3,8.7,1.6,13.1c3.3,13.8,4.7,27.8,4.5,42
		C727.2,350.9,726.6,348.4,728.5,346.3z"/>
	<path class="st15" d="M600.4,337.8c8.3,14.8,18.9,27.8,30.4,40.2c1.1,1.2,1.4,2.6,0.8,4.1c-2.7,2.6-7,0.3-9.5,3.2
		c-1,0.2-1.9,0-2.7-0.6c-0.7-0.7-1.3-1.3-2-2c-3.4-6.4-8.9-10.9-14-15.6c-5.5-5.6-10-11.9-12.7-19.4c-2-7.8-5.2-15.3-7.7-23
		c-6.6-20.2,4.1-37.7,19.6-46.9c4.5-2.7,9-6.7,15-6.3c1.7,4,5.1,4.6,8.9,4.4c-1.3,7.4-10.4,3.8-13.1,9.3l0.2-0.1
		c-13.7,5.3-20.7,15.1-20.2,29.2C593.4,322.7,595.4,330.7,600.4,337.8z"/>
	<path class="st16" d="M617.4,271.5c-6.2,3.6-13.2,6.4-18.6,11.1c-18.7,16.3-20.8,27.8-11,53.6c1.4,3.8,3.6,7.2,2.7,11.5
		c-5.6-8-8.3-17.2-10-26.6c-3.1-18.1,2.9-32.6,17.9-43.2c7.6-5.3,15.9-9.2,24.9-11.6c21.3-5.7,42.6-11.2,64-16.5
		c5.3-1.3,10.9-2.1,16.4-0.3c-3.2,3.7-7.4,4.6-11.9,4.2c-8.6-0.6-16.5,2.3-24.6,4.5C650.6,262.7,634,267.1,617.4,271.5z"/>
	<path class="st17" d="M624.1,956.4c-15.1,5.8-31.2,4.9-46.9,6.9c-15.4,1.9-31-4-46.2,1.8c-8.9-2.2-17.7-4.4-26.6-6.6
		c0.1-4,2.4-2.9,4.7-2C547.4,959.6,585.8,960,624.1,956.4z"/>
	<path class="st16" d="M613.2,285.2c1.8-6.7,10.3-4.1,13.1-9.3c3.9,0.1,7.9,0.2,11.8,0.3C629.8,279.2,621.5,282.2,613.2,285.2z"/>
	<path class="st18" d="M483.8,952.4c4.8,0.1,9.8-1.7,14.2,1.6c-0.1,1.4-1.5,1.6-2.4,2.3C491.4,955.9,487.4,954.8,483.8,952.4z"/>
	<path class="st19" d="M495.6,956.3c0.8-0.8,1.6-1.5,2.4-2.3c3.7,0.7,7.8-0.1,11.1,2.4c-1.6,0.7-3.1,1.4-4.7,2
		C501,959.9,498.7,956.6,495.6,956.3z"/>
	<path class="st2" d="M553.1,788.1c5.2,10.4-4.8,15.8-8.3,23.1c-1.5,3.1-5.3-0.2-7.4-2c-7.3-6.5-14.6-13.1-21.7-19.8
		c-2.7-2.6-5.2-4.1-8.5-1.3c-6.5-1.1-9.5-7.2-14.7-10.3c-2.3-2.7-4.2-5.7-5.8-8.9c-3.1-7.3-9.3-11.6-15.5-15.8
		c-27-27-51.9-55.8-65.4-92.2c-11.3-30.4-10-59.5,14.5-84.1c16.6-16.7,44-17.5,62.3-2.8c10,8.1,17.8,17.6,23.3,29.1
		c1.4,3,2.9,6,4.9,8.7c5.9,8.1,10.5,8.7,18.2,2.4c2-1.6,3.8-3.5,6-4.9c6.3-4.2,11.7-9.1,14.6-16.4c20.1-29.2,68.3-27.1,89,4
		c9.4,14.1,7.6,29.6,1.9,44.7c-2.8,7.3-6.7,14-11.6,20.1c-3,2.9-6.2,5.6-8.2,9.4c-13.4,10.9-24.1,24.5-37,35.9
		c-5.7,1.2-7.1,5.8-8.5,10.5c-10.1,16.4-19.7,32.9-20,52.9C552.3,776,556.2,782.4,553.1,788.1z"/>
	<path class="st4" d="M621.9,384.5c0.7-9.9,5.9-1.5,8.8-2.2c8,1.4,13.4,7,19.4,11.7c6,4.7,11.7,10,19.2,12.7
		c5.6,2.9,10.2,7.1,14.3,11.8c14.8,12.3,29.5,24.7,44.3,37c5.8,2.4,8.9,7.3,11.5,12.6c31,39.1,51.3,83.2,62.3,131.8
		c8,24.8,6,50.1,4.3,75.4c-2.7,40.7-18,76.8-40.6,110.1c-0.9,1.3-2.2,1.9-3.5,2.6c-20.8,25.3-44.6,46.9-75.7,58.8
		c-10.2,3.9-20.9,6.5-31.4,9.7c-18.2,5.1-36.3,4.4-54.4-0.3c-19.4-5.4-39.2-9.8-56.4-21.1c-0.5-0.6-0.7-1.2-0.7-1.8
		c0.1-0.7,0.2-1,0.4-1c6.7-3.4,9.7,6.2,15.3,4c-5.2-1.1-11.1-2.5-5.8-10.6c18.6,6.5,36.7,14.7,56.6,16.6c17.6,1.7,35.1,2.4,52.2-3.5
		c3.5-1.2,6.3-3.5,9.6-5c6.7-1.1,11.9-6.4,19-6.4c14.4-2.8,24.4-12.9,34.5-21.9c29.1-25.7,48.3-57.8,57.9-95.5
		c-0.9-5.3,0.7-10.1,3.3-14.7c1.4-1.5,1.6-3.3,1.2-5.3c0-15.6,2.2-31.1,2.1-46.8c-0.1-11-4.3-21.6-1.9-32.7
		C777.2,548.5,751,494.7,702.2,453c-4.8-2-7.8-6-11.4-9.4c-15.6-12.1-31.3-24.2-46.9-36.3c-5.2-0.6-7.2-5-10.1-8.3
		C630.9,393.3,625,390,621.9,384.5z"/>
	<path class="st20" d="M552.6,770.5c-0.3-21,9.4-38.3,20.9-54.9c1.4-4.5,4.8-7.2,8.5-9.7c12-12.2,22.6-25.9,36.8-35.8
		c0.9-0.4,1.9-0.8,2.8-1c3.9,0.5,8.6-0.1,8.5,6c-0.8,2.5-2.4,4.4-3.8,6.5c-10.7,11.1-21.6,22-32.1,33.2
		c-9.3,9.9-18.2,20.2-22.6,33.5c-2.7,12.1-4.6,24.2,1.2,36c28.5,29.3,82,31.7,119.6,5.6c12.3-8.5,21.6-19.9,31-31.1
		c0.4,0.3,0.9,0.6,1.3,1c2.6,7.9-3.1,12.5-7.3,17.3c-9.4,11-21.3,18.9-33.4,26.5c21.1-11.3,37.3-27.4,49.5-48.2
		c11.4-19.4,20.2-39.5,23.7-62c2.8-17.7,7.7-35.1,6.1-53.2c-2.2-26.1-6.2-51.8-17.4-75.8c-1-2-1.5-4.2-0.5-6.4
		c2.7-2.3,3.8,0.7,5.5,1.7c18.7,39.4,23.3,80.7,16.5,123.5c-0.3,1.8-0.4,3.6-0.6,5.4c-0.8,14.8-5.2,28.6-11.9,41.8
		c-11.7,26-26.8,49.6-49,68.1c-3.4,4.9-8.7,6.9-13.7,9.4c-28,14.5-57.6,17.8-88.2,11.1c-20.6-4.5-38-14.1-48.3-33.5
		C552,781,551.5,775.9,552.6,770.5z"/>
	<path class="st2" d="M690.6,827.7c-4.9,4.9-11.1,7.2-17.8,8.6c-2-1.3-4.8,0.7-6.5-1.6c-7-2.7-12.8-1.4-19.7,2.3
		c-9.6,5.2-21,2.4-31.5,1.8c-8.6-0.5-17.1-3.7-25.6-5.7c-11.7-2.7-23.1-6-33.6-12.3c-2.7-1.6-3.2-3.8-1.4-4.9
		c4.3-2.3,4.6-13,10.3-8.6c18.1,14.1,38.9,18.6,60.7,20.8c1.8,0.2,3.5,0.4,4.7,2.2c5.3,8.1,9.5,9,12.2-1.8c0.8-3.3,4.5-3.4,6.5-2.5
		c11.5,5.3,19.7-3,29-6.6c1.7-0.6,3.2-1.9,4.9-2.3C690.5,815.6,692.8,818.9,690.6,827.7z"/>
	<path class="st21" d="M750.9,559.6c-1.6-0.7-3.2-1.4-4.8-2.1c-7-5.8-10.3-13.9-13.3-22.2c-0.3-9.7-7.8-15.6-12.7-22.5
		c-16.5-23.2-36.9-42.9-58.2-61.7c-16.2-14.3-35.4-24.9-51.1-40c0.9-1,1.9-1.1,2.9-0.3c3.5,2.2,6.9,4.4,10.4,6.5
		c22,17.4,45.2,33.4,65,53.5C714.7,497,737.3,525.2,750.9,559.6z"/>
	<path class="st4" d="M494.1,776.7c6,1.9,8.8,7.5,13.1,11.4c6.5,6.5,13,12.9,19.5,19.4c4.4,5.8,11.5,8.3,16.1,13.8
		c1.1,8.6-6.6,4.9-10,7.1c-0.7-0.8-1.3-1.5-2-2.3c-17.7-13.2-33.4-28.6-48.4-44.7c-3-3.2-10.4-7.3-5.6-12.1c4.6-4.6,9.9,1,13.8,4.8
		C491.8,775.1,492.6,776.3,494.1,776.7z"/>
	<path class="st22" d="M787.7,610.8c4.8,26.5,5.1,53-0.1,79.5c-4.4-7.7,0.8-15.1,0.6-22.6c-0.3-14.3,1.1-28.7-1.9-43
		C785.3,620.4,784.5,615.2,787.7,610.8z"/>
	<path class="st23" d="M754.9,730.4c4-13.9,7.9-27.9,11.9-41.8c4.6,11.5-2.7,21-5.8,31C759.9,722.9,762.9,730.4,754.9,730.4z"/>
	<path class="st2" d="M703.9,803.6c3.4,0.3,6.4-0.6,8.9-3.2c1.5-1.7,3.3-3.2,4.9,0c1,2,1.3,3.3-1,5.4c-9.1,8.5-11.9,8.7-15,0
		C701.1,803.7,701.8,803,703.9,803.6z"/>
	<path class="st4" d="M553.1,826c0.7,5.2,0.7,5.2,9,12.8c-7-0.2-12.3-3.7-17.8-6.4c-2.3,0.8-3-0.6-3.3-2.4c1.5-5.7,6.4-3.1,9.9-4.1
		C551.6,826,552.4,826,553.1,826z"/>
	<path class="st4" d="M550.9,826c-2,3.4-6.9,0.7-8.8,4.3c-3.8,2.8-6.1-1.4-9.2-1.9c0,0,0,0,0,0c0.5-2.9,1.5-5,5.1-3.6
		c3.1,1.2,3.8-1,4.1-3.4c2.9-1.2,4.6,1.1,6.7,2.2C549.4,824.4,550.2,825.2,550.9,826z"/>
	<path class="st24" d="M548.7,823.6c-2.2-0.7-4.5-1.5-6.7-2.2c-5.5-4.3-12.7-6.5-15.3-13.9C534.2,812.7,542.3,816.9,548.7,823.6z"/>
	<path class="st25" d="M621.9,384.5c4.8,4.3,11.6,6.7,13,14.1c-0.5,0.8-1.2,1.2-2.2,1.1c-4.5-5-9-9.9-13.5-14.9
		C620.1,384.7,621,384.6,621.9,384.5z"/>
	<path class="st25" d="M603.2,367.1c7.2,2.9,12.7,7.4,14,15.6C611.8,378.2,606.7,373.4,603.2,367.1z"/>
	<path class="st26" d="M786.3,695.6c0.1,5.2-1.6,9.9-3.3,14.7c-3.4-5.6-0.6-10.6,1.7-15.6c0-0.1,0.7,0,0.9,0.1
		C785.9,695,786.1,695.4,786.3,695.6z"/>
	<path class="st27" d="M552.6,770.5c1,5,2,9.9,3,14.9c-0.8,0.9-1.6,1.8-2.5,2.7C552.1,782.3,548.6,776.5,552.6,770.5z"/>
	<path class="st28" d="M703.9,803.6c-0.7,0.7-1.5,1.4-2.2,2.2c-3.2,0.7-6.3,1.3-9.5,2c4.6-3.1,9.1-6.3,13.7-9.4
		C705.2,800.2,704.6,801.9,703.9,803.6z"/>
	<path class="st29" d="M632.7,399.6c0.7-0.4,1.5-0.7,2.2-1.1c3,2.9,6,5.8,9,8.8C637.1,409.2,635.8,403.2,632.7,399.6z"/>
	<path class="st30" d="M666.2,834.7c2.3,0.1,4.7-0.4,6.5,1.6c-3.5,1.4-6.8,3.2-10.7,2.9c-0.9-0.4-1.7-0.8-2.6-1.2
		c0.4-0.3,0.9-0.9,1.3-1C662.8,836.8,664.9,836.8,666.2,834.7z"/>
	<path class="st31" d="M690.8,443.6c4.5,2.3,8.2,5.5,11.4,9.4C696,452.9,692.9,448.8,690.8,443.6z"/>
	<path class="st4" d="M431.5,727.3c-1.6-3.2-3.1-6.6-6.9-8c-1.9-3.3-5.4-5.6-6.4-9.6c-9.3-14.1-17.8-28.6-23.3-44.7
		c-10.6-31.3-10.4-61.6,10.2-89.4c22.8-30.9,69.1-32,93.5-4.3c5.3,6,9.6,13,14.4,19.5c4.4,3,4,11.7,12,10.5
		c11.7-9.3,20.5-21.9,33.6-29.8c24.2-14.7,58.4-10.9,77.2,8.7c0.1,1.1-0.3,2.1-1.1,2.9c-4,3-7.4,1.6-11.1-0.9
		c-22.3-14.7-59.9-12.2-76.3,13.9c-4.4,7.1-11.6,12.3-17.5,18.3c-6.8,6.9-15.5,5.5-20-3.2c-3.2-6.3-6.4-12.5-10.3-18.3
		c-17.1-25.6-33.4-32.9-60.3-26.7c-19.4,4.5-36.6,28.1-37.9,50.6c-1.6,26.2,4.6,49.7,19.2,72c14.1,21.7,29.8,41.8,47.9,60.1
		c1,1.1,2.1,2.1,2.8,3.4c1.8,3.5,8.5,6.6,3.8,10.9c-4.8,4.3-9.6,0.1-12.9-4.2c-1.4-1.8-2.5-3.6-4.9-4.1c-5.5-3.8-8.4-10.4-14.5-13.5
		C439.5,736.4,433.4,733.5,431.5,727.3z"/>
	<path class="st32" d="M635.2,581.9c-8-4.8-14.5-11-24.7-13.5c-9.4-2.3-18.7-5.8-27.7-3.7c-17.3,4.2-33,12.1-44.5,26.8
		c-3.9,5-7.3,11.2-14.7,12.3c-0.6-1.6-0.6-2.9,1.3-3.5l0,0c0.4-3.8,3.5-5.3,6.1-7.2c11.6-12.8,24.1-24.5,41.2-29.7
		c19.7-5.9,38.3-1.4,56.4,6.9c3.4-0.5,4.4,2.6,6.5,4.3c33.9,29,21.3,77.2,0.1,96.1c-2.1,1.7-2.5,5.9-6.7,4.4
		c0.2-5.2-4.9-2.3-6.7-4.5c-1.5-4.4,3.7-5.8,4.2-9.3c4.8-8.2,10.6-15.7,13.4-25.1c6-20.2,1.1-37.7-14.3-50.4
		c-14.3-11.7-40.9-14.2-57.4-5.1c-6.4,3.5-12.6,7.6-17,13.7c-3.1,6.8-9.1,10.9-14.1,16c-2,2.1-4,4.4-6.1,6.4
		c-7.8,7.7-14.7,7.2-21.1-1.9c-3.6-5.1-6.2-10.9-9.3-16.4c-15.2-26.5-34.9-36.6-57-31.5c-22.8,5.3-39.6,28.8-40.8,55.6
		c-1.3,28.4,10.4,52.3,25.7,74.9c13.4,19.9,29.2,37.8,45.8,55.1c5.1,5.3,11.7,9.1,14.5,16.3c1.9,2.6,3.8,5.2,5.6,7.7
		c-5.4-2.5-10.7-4.9-16.1-7.4c-0.6,1-1.4,2.1-1.2,2.2c15.3,16,29.2,33.4,47.8,46c2.8,1.9,6.2,4.1,6.2,8.4
		c-7.9-0.9-12.1-7.3-17.5-11.8c-20.8-17.7-39.3-37.7-56.3-59.1c6.8-0.7,8.8,11.2,17.7,5.7c-10.6-12.2-21.3-24.6-32.3-36.9
		c-12.8-14.2-23.4-30.3-31.9-46.9c-13.3-26.1-16.6-55.2-5.2-82.6c13.9-33.6,55.2-42.5,83.3-18.5c10.5,8.9,15.1,21.3,21.9,32.3
		c5.8,9.5,11.8,11,19.3,2.8c7.9-8.6,15-18.3,23.8-25.9c10.7-9.3,23.9-13.4,38.5-13.7c12.5-0.3,23.4,3.3,33.5,10.2
		C628.9,583.8,632,582.2,635.2,581.9c0.9,1.9,0.8,4.1,2.2,5.7C636.6,585.7,636,583.8,635.2,581.9z"/>
	<path class="st33" d="M761.9,788.2c31.5-45.8,46.8-96.3,43.5-152c-0.7-12.1-2.4-24.1-3.6-36.2c12.5,21.7,17.1,45.9,21.1,70.1
		c4.7,28.3,6.3,56.9,4.8,85.7c-0.1,2.9-1.1,5.7-1.6,8.5c-2-2.2-1.4-4.6-0.9-7c-3.1,4.6,3.7,11.8-3.7,15.4
		c0.4-10.6,0.3-21.2,1.4-31.8c2-19.9-1.3-39.7-2-59.4c-0.7-17.1-6.7-34.1-11.8-51c2.7,14-1.2,27.7-0.8,41.4
		c0.5,22.5-6.9,43.2-13.8,64.2c-6.1,18.7-18.3,33.9-26.9,51.1C766.1,789.8,764.1,789.3,761.9,788.2z"/>
	<path class="st21" d="M719.1,528.9c5.1-0.7,5.3,5.5,9.2,6.5c10.8,9.9,15.5,23.5,20,36.4c13.1,37.3,18.5,75.4,10,115
		c-4.3,19.9-10.2,39-19,57.1c-3.2,6.6-5.8,14.8-15.3,15.6c0,0-0.6-0.6-0.6-0.6c9.5-17.7,20.1-35,24.2-55.1
		c4.2-22.4,7.2-44.8,6.5-67.7c-0.3-8.5-3.7-16.6-2-25.1C747.7,580.9,734.1,554.6,719.1,528.9z"/>
	<path class="st34" d="M198.6,438.4c-34.3,56.3-43.6,118-39.9,182.6c0.2,2.9,0,5.9,0,8.8c1.3,6.2,1.1,12.4-0.1,20.7
		c-4.4-5.1-3.9-9.3-4.4-13.2c3.7-4.1,2.4-9.3,1.9-13.8c-3.9-31.3-1.6-62.1,4.4-92.9c6.6-34.2,16-67,37.9-95
		C199.4,436.4,199.5,437.3,198.6,438.4z"/>
	<path class="st35" d="M752.1,610.9c6.5,31.3,4.8,62.3-4.5,92.8c-3.5-10,2.4-19.1,3.2-28.7c1.4-18.3,3.5-36.4-0.2-54.6
		C750,617.3,749.6,613.7,752.1,610.9z"/>
	<path class="st21" d="M683.3,484.6c14,3.9,18.8,17.4,26.5,27.2c3.6,4.6,14.7,7.1,9.4,17.1c-8.1-5.6-10.2-15.9-17.6-22
		c-2.8-1.9-5-4.4-6.4-7.5C691.2,494.5,687.3,489.5,683.3,484.6z"/>
	<path class="st36" d="M154.2,637.2c1,2.9,2,5.8,2.9,8.7c0.5,0,1,0,1.6,0c0-5.4,0-10.8,0-16.2c1.5,10.5,2.9,21,4.4,31.6
		c0.3,2.8,3.1,6.4-2.5,7.2c-4.7-11.4-7.5-23.3-8.8-35.6C153.6,633.8,154,635.5,154.2,637.2z"/>
	<path class="st37" d="M600.4,856.5c18.1,1.9,36.3,2.5,54.4,0.3c0.4,0,0.8,0,1.1,0.2c0.5,0.3,0.9,0.8,1.4,1.2
		c-2,0.6-3.9,1.3-5.9,1.6c-17.1,2.5-34.1,2.7-51.1-0.9c-0.3-0.1-0.7-0.5-0.7-0.6C599.8,857.6,600.1,857.1,600.4,856.5z"/>
	<path class="st38" d="M572.8,784.4c-8.9-11.7-6.1-23.9-1.2-36C571.8,760.4,569.5,772.5,572.8,784.4z"/>
	<path class="st39" d="M821.4,772.6c4.9-5.3,0.2-12.2,3.1-17.9c2.4,3,0.6,6.5,1.5,9.6c0.7,8.1-1.4,15.9-3.1,23.7
		C819.9,783.1,822.1,777.7,821.4,772.6z"/>
	<path class="st40" d="M382.2,386.9c-9.5-2.5-19-5-28.5-7.5c10.9-4.3,19.6,2.3,29,5.6c0.2,0.1,0.2,0.7,0.1,1
		C382.8,386.3,382.5,386.6,382.2,386.9z"/>
	<path class="st41" d="M524.9,600.3c-0.4,1.2-0.9,2.3-1.3,3.5c-8.2-0.4-8-7.8-10.7-12.9C518.4,592.1,519.1,599.5,524.9,600.3z"/>
	<path class="st42" d="M367.6,555.2c3.3-5.4,7.5-9.9,12.4-13.8C379,548.8,374,552.7,367.6,555.2z"/>
	<path class="st43" d="M344.9,579.7c4.3-4.5,8.7-9.1,13-13.6C356.5,573.4,351.7,577.6,344.9,579.7z"/>
	<path class="st44" d="M431.5,727.3c4.3,4.3,9.2,8.1,11.1,14.3C437.6,737.9,431.5,734.9,431.5,727.3z"/>
	<path class="st45" d="M253.7,393c-4.5,2.3-9,4.7-13.5,7C242.7,393.8,247.3,391.5,253.7,393z"/>
	<path class="st46" d="M406.5,400.8c-4.3-2.7-8.5-5.5-12.8-8.2C400.4,391.5,404.2,395,406.5,400.8z"/>
	<path class="st47" d="M537.2,305.1c0,4.9,0,9.8,0,14.7c-0.4,0-0.7,0-1.1,0.1c0-4.8,0-9.7,0-14.5
		C536.5,305.2,536.8,305.1,537.2,305.1z"/>
	<path class="st48" d="M371.5,354.3c3.7-1,7.3-2,11-3C380.8,359.4,375.7,355.3,371.5,354.3z"/>
	<path class="st49" d="M628.5,675c2.2-1.5,4.4-3,6.7-4.4c-1.1,5.2-5,8.1-8.9,11.1C627,679.5,627.8,677.2,628.5,675z"/>
	<path class="st50" d="M786.9,870.4c-2.2,4.6-5.5,8.5-9.6,11.5C777.5,875.6,781.5,872.4,786.9,870.4z"/>
	<path class="st51" d="M762.3,897c-3.2,4-6.9,7.3-11.5,9.6C752.7,901.2,755.9,897.2,762.3,897z"/>
	<path class="st24" d="M532.8,828.3c3.1,0.6,6.2,1.3,9.2,1.9c0.7,0.7,1.5,1.5,2.2,2.2c-0.1,1-0.2,1.9-0.3,2.9
		C539.7,833.9,535.7,831.9,532.8,828.3z"/>
	<path class="st52" d="M657.5,197.5c3.5,2,7.5,3.7,8.1,8.5C661.3,204.8,658.9,201.6,657.5,197.5z"/>
	<path class="st53" d="M418.2,709.8c3.2,2.5,5.1,5.8,6.4,9.6C420.8,717.3,417.6,714.8,418.2,709.8z"/>
	<path class="st54" d="M695.2,499.4c2.9,1.9,4.9,4.5,6.4,7.5C696.5,506.9,695.4,503.6,695.2,499.4z"/>
	<path class="st55" d="M198.6,438.4c-0.1-0.9-0.2-1.9-0.3-2.8c1.8-3,3.7-5.8,7.6-6.4C204.2,432.8,201.8,435.8,198.6,438.4z"/>
	<path class="st56" d="M401.2,517.4c2.5-3.1,5.1-6.2,7.6-9.3C408.9,513.4,406,516.2,401.2,517.4z"/>
	<path class="st57" d="M563.5,380.3c1.7,2.3,3.4,4.6,5.1,6.9C564,387,561.7,385.1,563.5,380.3z"/>
	<path class="st58" d="M413.6,172.1c1.3-3,3.4-5.3,6.5-6.4C419.2,169.1,418.7,172.9,413.6,172.1z"/>
	<path class="st41" d="M531,593c-1.4,3-3.3,5.5-6.1,7.2C524,595.3,526.6,593.3,531,593z"/>
	<path class="st59" d="M635.1,574.5c-2.2-1.4-4.3-2.8-6.5-4.3C633.6,567.4,634.2,571.1,635.1,574.5z"/>
	<path class="st60" d="M165.2,672.7c2.7,6.6,4.3,13.4,4.3,20.6c-3-3.2-3.7-7.3-4.5-11.3C163.7,678.9,163.2,675.8,165.2,672.7z"/>
	<path class="st36" d="M165.2,672.7c-0.1,3.1-0.1,6.2-0.2,9.2c-2.5-3.3-3.5-7.2-3.8-11.3C163.5,669.6,164,671.8,165.2,672.7
		C165.2,672.7,165.2,672.7,165.2,672.7z"/>
	<path class="st60" d="M165.2,672.7c-1.3-0.7-2.6-1.4-4-2.1c-0.2-0.7-0.4-1.5-0.6-2.2c2.7-1.8,1.9-4.7,2.5-7.2
		C165.4,664.8,165.3,668.8,165.2,672.7z"/>
	<path class="st2" d="M293.4,616.6c-6.8,6.9-13.6,13.8-20.3,20.7c-3.1,2.7-6.4,5.3-8,9.3c-8.6,10.7-17.4,21.2-27.4,30.7
		c-4.6,3.8-8.7,8-12.5,12.5c-7.7,8.3-17.4,13.5-27.3,18.5c-4.9,2.5-7.5,2.2-9.3-4.1c-14.7-50.6-20.4-101.9-13.2-154.3
		c5.4-38.8,15.9-75.8,39.7-107.8c3.9-5.3,8.6-10.1,12.9-15.1c35.5-28.4,75.7-39.4,120.7-33.5c20.8,2.7,39.4,10.5,54.9,24.8
		c5.7,5.3,10,11.8,11.5,19.7c-0.4,8,0.5,16,0.1,24.1c-3.4,17.7-13,32-25.2,44.7c-5.4,6-12.4,10.7-16.1,18.2
		c-23.6,26.6-47.2,53.2-70.7,79.9C299.7,608.6,296.6,612.7,293.4,616.6z"/>
	<path class="st0" d="M169.5,550.9c0,24.4,0,48.8,0,73.2c-7.6-3.2-9.2-9.1-9-16.9c0.3-18.4,1-36.5,5.2-54.8c2.1-9.1,6.9-18.8,3.9-29
		c-1.6-5.5,1.2-7.4,6.6-5.7c-4.1,7.8-1.4,16.3-2.3,24.4C169.6,543.6,171.5,548.1,169.5,550.9z"/>
	<path class="st0" d="M169.5,632.9c-2.4,10.2,6.9,18.6,4.4,28.8c-11.5-1-8.8-9.7-8.7-16.7C165.3,640.7,166.4,636.4,169.5,632.9z"/>
	<path class="st61" d="M415.1,462c-2.7-8-2.5-16-0.1-24.1C417.5,446,417.9,454,415.1,462z"/>
	<path class="st62" d="M373.8,524.9c1.8-9.2,8.9-13.7,16.1-18.2C385.5,513.7,379.8,519.4,373.8,524.9z"/>
	<path class="st0" d="M178.4,508.7c-0.3,3.1,1,6.5-2.2,8.9C175,514.2,171.1,510.1,178.4,508.7z"/>
	<path class="st4" d="M724,759.4c11.6-11.1,17.3-25.2,22.4-40.1c4.6-13.4,8.4-26.9,10.5-40.8c3.3-21.1,2.8-42-0.4-63.3
		c-4.3-28.7-15.7-54.4-28.2-79.9c1.5,0,3,0,4.4,0c7,5.9,9.3,14.5,13.3,22.2c9.5,22.3,16,45,18.6,69.7c2.3,22.3-1.5,42.9-4.1,64.5
		c-2.1,17.2-7.8,32.6-14.9,47.2c-11.3,23.4-24.5,46.3-48.9,59.8c-6.5,3.6-10.4,12.6-21.6,6.8c14.5-8.7,28.1-16.5,38.7-28.3
		C718.5,771.9,723.7,767.1,724,759.4z"/>
	<path class="st9" d="M613.7,410.9c-1,0.1-2,0.2-2.9,0.3c-3.8-3.6-10.6-4.2-11.1-11.1C605.6,402.1,609.7,406.4,613.7,410.9z"/>
	<path class="st63" d="M225.1,689.8c2.1-6.2,6.3-10.4,12.5-12.5C234.8,682.8,230,686.4,225.1,689.8z"/>
	<path class="st64" d="M265,646.6c0.2-5.3,3-8.2,8-9.3C271.3,641.3,268.5,644.2,265,646.6z"/>
	<path class="st4" d="M169.5,550.9c0.4-3.5-1.5-8.1,4.4-8.9C172.5,544.9,171,547.9,169.5,550.9z"/>
	<path class="st65" d="M739.5,468.2c-5-3.1-8-8.1-11.5-12.6c2.6-0.4,6.7,3.3,5.5-4.5c-3.9-26.5-6.3-53.2-5.1-80
		c0.2-3.6-1-7.4,1.5-10.7c1.2,22.3,1.9,44.7,3.7,66.9C734.6,441,737.4,454.6,739.5,468.2z"/>
	<path class="st66" d="M728.5,346.3c-0.8,3.1,1,6.6-2.1,10.1c-0.6-16.3-2.4-31.8-4.9-47.2c-1.4-2.5-1.6-4.9,0.3-7.2
		C726.6,316.4,728.6,331.2,728.5,346.3z"/>
	<path class="st67" d="M719.7,293.3c-3.9-2.2-4.7-4.8-3.1-10.6C718,286.1,719.8,289.4,719.7,293.3z"/>
	<path class="st68" d="M721.9,302c-0.1,2.4-0.2,4.8-0.3,7.2c-3.2-3.5-3-7.2-0.5-10.9C721.4,299.5,721.6,300.7,721.9,302z"/>
	<path class="st16" d="M600.4,337.8c-8.3-9.5-11.5-20.3-7.7-32.5c3.2-10.4,7.5-19.9,20.7-20.2C591.9,300.7,590.6,306.1,600.4,337.8z
		"/>
	<path class="st69" d="M683.6,418.6c-4.9-3.3-9.9-6.5-14.8-9.8c-7.3-5.1-15.4-9.4-21.1-16.5c0.2-1.8,1.6-2.5,3-3.2
		c10,7.7,20.5,14.6,29.6,23.4C682.1,414.3,684.1,415.6,683.6,418.6z"/>
	<path class="st25" d="M648.6,391.2c6.7,5.9,13.5,11.7,20.2,17.6c-8.9-1.3-14.5-8.2-20.9-13.2c-5.7-4.5-11.5-8.8-17.2-13.2
		c0-1.5,0-2.9,0-4.4c3.5,2.3,7,4.5,10.4,6.8C644.5,385.9,646.9,388.1,648.6,391.2z"/>
	<path class="st70" d="M648.6,391.2c-2.5-2.1-4.9-4.3-7.4-6.4c4.2-0.8,6.3,2.9,9.5,4.3C650,389.7,649.3,390.5,648.6,391.2z"/>
	<path class="st71" d="M488.5,769c-5.4-4.9-10.4-10.2-14.5-16.3C481,756.1,487.3,760.2,488.5,769z"/>
	<path class="st72" d="M536.6,610.5c3.7-6.2,8.5-11.5,14.1-16C549.4,602.8,543.4,606.9,536.6,610.5z"/>
	<path class="st73" d="M582,706c-2.2,3.8-5,7.1-8.5,9.7C573.7,710.1,575.9,706.4,582,706z"/>
	<path class="st49" d="M626.1,661.3c0.8,4.1-2.9,6.2-4.2,9.3c-1-0.1-2.1-0.3-3.1-0.4C619.9,666.2,622.8,663.6,626.1,661.3z"/>
	<path class="st4" d="M635.2,581.8c4.8,2.8,6.8,5.8,4.5,10.9C635.1,590.2,631.6,587.7,635.2,581.8z"/>
</g>
</svg>
